<svg width="500" height="500" version="1.1" viewBox="0 0 132.29 132.29" xmlns="http://www.w3.org/2000/svg">
    <g transform="translate(.089988 .063493)" stroke-width=".4132">
        <path d="m33.526 123.08-4.7292-4.7567 10.31-10.365c10.948-11.007 13.601-13.116 18.768-14.918 3.8742-1.3515 11.746-1.387 15.885-0.0717 5.6854 1.8067 7.4461 3.1801 18.904 14.746l10.652 10.752-9.3214 9.3755-10.53-10.497c-11.814-11.777-12.221-12.057-17.544-12.047-5.2768 0.01-6.3628 0.76887-17.752 12.409l-9.9128 10.131zm26.824-66.227c-4.5741-0.9853-9.2278-3.5957-12.803-7.1817-14.005-14.047-8.3062-38.019 10.502-44.173 4.2652-1.3958 10.982-1.5762 14.886-0.3998 7.1446 2.153 13.604 7.5634 16.61 13.914 0.91599 1.9346 1.9124 4.5416 2.2142 5.7934 0.76318 3.1649 0.65318 9.552-0.22034 12.795-3.7246 13.828-17.343 22.235-31.188 19.253zm11.43-14.071c9.7165-4.7619 9.7349-18.887 0.03102-23.751-2.101-1.053-3.0027-1.2608-5.4707-1.2608-3.8457 0-6.3349 0.88863-8.8552 3.1613-3.0464 2.7471-4.3555 5.715-4.3551 9.8738 2.68e-4 2.7118 0.19521 3.7221 1.078 5.5865 3.2156 6.791 10.987 9.617 17.572 6.3899z" fill="#3ea59a"/>
        <path d="m98.187 101.71c-9.6697-10.031-11.072-11.658-12.427-14.411-2.2358-4.5455-2.9184-7.9602-2.6882-13.449 0.21805-5.1985 1.3899-9.0617 3.9692-13.085 0.82015-1.2794 6.1404-7.0939 11.823-12.921l10.332-10.595 9.6592 9.713-9.9173 9.9268c-11.551 11.562-12.548 13.007-12.537 18.171 0.0115 5.2454 0.79712 6.3973 12.165 17.837 5.4339 5.4683 9.8798 10.127 9.8798 10.352 0 0.2253-2.1057 2.5156-4.6793 5.0895l-4.6793 4.6798zm-80.302 6.1894-4.6282-4.642 10.025-10.152c11.335-11.478 11.921-12.316 12.159-17.394 0.11514-2.4526-0.0477-3.6244-0.77651-5.5865-0.84518-2.2754-1.7762-3.3471-11.144-12.828l-10.222-10.345 9.2194-9.7924 10.961 11.103c10.449 10.585 11.04 11.268 12.653 14.621 4.4044 9.1562 3.8268 19.144-1.5728 27.196-1.1896 1.7741-21.292 22.461-21.826 22.461-0.12075 0-2.3023-2.0889-4.8478-4.6419z" fill="#1e3255"/>
    </g>
</svg>
