<?xml version="1.0" standalone="no"?>
<!DOCTYPE svg PUBLIC "-//W3C//DTD SVG 20010904//EN"
 "http://www.w3.org/TR/2001/REC-SVG-20010904/DTD/svg10.dtd">
<svg version="1.0" xmlns="http://www.w3.org/2000/svg"
 width="96.000000pt" height="96.000000pt" viewBox="0 0 96.000000 96.000000"
 preserveAspectRatio="xMidYMid meet">
<metadata>
Created by potrace 1.14, written by Peter Selinger 2001-2017
</metadata>
<g transform="translate(0.000000,96.000000) scale(0.100000,-0.100000)"
fill="#000000" stroke="none">
<path d="M395 941 c-73 -34 -110 -85 -121 -165 -17 -122 80 -230 206 -230 224
1 290 302 86 395 -52 24 -120 24 -171 0z m136 -101 c24 -13 49 -61 49 -94 0
-14 -13 -40 -29 -58 -24 -27 -36 -33 -71 -33 -72 0 -121 76 -89 138 26 51 91
73 140 47z"/>
<path d="M120 686 c-60 -53 -61 -48 34 -145 121 -124 120 -138 -19 -273 -36
-34 -65 -67 -65 -72 0 -5 16 -25 36 -44 l37 -36 93 96 c95 98 114 132 114 208
-1 58 -35 116 -122 204 l-83 85 -25 -23z"/>
<path d="M732 625 c-87 -89 -121 -147 -122 -205 0 -76 18 -110 115 -209 l93
-96 36 37 c20 20 36 41 36 45 0 4 -36 43 -80 87 -44 43 -82 87 -86 98 -14 46
5 83 86 163 44 44 80 82 80 86 0 3 -10 17 -23 30 -51 54 -46 55 -135 -36z"/>
<path d="M410 272 c-27 -9 -70 -42 -130 -100 -50 -48 -90 -91 -90 -97 0 -5 16
-26 35 -45 l35 -34 83 81 c45 44 90 85 101 90 40 21 86 -2 172 -88 l83 -83 35
35 c20 19 36 38 36 43 0 18 -169 177 -205 192 -50 20 -105 22 -155 6z"/>
</g>
</svg>
