<?xml version="1.0" standalone="no"?>
<!DOCTYPE svg PUBLIC "-//W3C//DTD SVG 20010904//EN"
 "http://www.w3.org/TR/2001/REC-SVG-20010904/DTD/svg10.dtd">
<svg version="1.0" xmlns="http://www.w3.org/2000/svg"
 width="700.000000pt" height="700.000000pt" viewBox="0 0 700.000000 700.000000"
 preserveAspectRatio="xMidYMid meet">
<metadata>
Created by potrace 1.14, written by Peter Selinger 2001-2017
</metadata>
<g transform="translate(0.000000,700.000000) scale(0.100000,-0.100000)"
fill="#000000" stroke="none">
<path d="M3398 6765 c-2 -2 -34 -6 -73 -10 -441 -43 -852 -332 -1060 -744 -55
-111 -92 -214 -122 -341 -24 -103 -27 -134 -27 -305 0 -159 3 -206 21 -287 75
-331 233 -591 492 -807 381 -316 899 -400 1364 -221 170 65 337 173 466 300
104 102 132 135 201 241 73 111 121 212 165 344 47 142 59 234 59 455 0 194
-11 266 -59 400 -90 251 -178 394 -344 559 -121 119 -111 111 -223 188 -153
104 -379 199 -525 219 -46 6 -330 14 -335 9z m262 -720 c51 -9 145 -53 220
-102 315 -204 403 -653 192 -973 -99 -151 -248 -250 -447 -297 -47 -11 -196
-9 -260 4 -90 18 -235 89 -306 150 -111 95 -206 250 -235 384 -10 45 -6 244 6
309 48 263 300 503 554 527 33 3 62 6 64 8 5 4 179 -4 212 -10z"/>
<path d="M1148 4980 c-46 -51 -214 -230 -411 -438 l-28 -30 117 -118 c64 -66
250 -254 413 -419 477 -485 540 -555 586 -659 42 -95 55 -161 55 -271 0 -165
-23 -263 -84 -359 -76 -119 -174 -225 -835 -896 -117 -118 -221 -225 -233
-238 l-21 -22 247 -245 c197 -194 252 -243 265 -236 20 11 603 601 827 836
312 329 335 358 406 500 70 141 116 288 136 435 9 71 9 331 -1 395 -34 223
-137 484 -248 631 -74 98 -180 209 -809 846 l-335 340 -47 -52z"/>
<path d="M5678 4919 c-57 -59 -214 -221 -350 -360 -135 -140 -264 -272 -285
-295 -116 -124 -264 -284 -290 -314 -17 -19 -47 -53 -67 -74 -118 -129 -225
-356 -262 -556 -14 -76 -15 -102 -19 -290 -4 -219 6 -307 55 -452 57 -168 135
-307 239 -428 54 -63 155 -173 247 -269 56 -58 130 -136 165 -173 123 -128
415 -432 541 -561 l126 -131 202 204 c112 113 223 229 247 257 43 51 45 54 30
75 -21 30 -105 118 -467 488 -377 385 -391 400 -471 490 -112 128 -176 231
-195 310 -4 19 -9 42 -11 50 -2 8 -4 71 -4 140 0 230 45 315 339 629 24 25
224 227 444 449 221 221 399 404 397 406 -2 3 -117 119 -256 258 l-252 254
-103 -107z"/>
<path d="M3338 2125 c-2 -2 -34 -6 -71 -10 -134 -13 -297 -68 -422 -143 -125
-74 -231 -162 -439 -362 -142 -136 -876 -873 -873 -876 1 -2 113 -115 249
-252 l247 -249 360 366 c320 327 480 486 606 606 64 61 176 143 230 169 80 39
121 47 248 50 131 4 213 -9 285 -45 121 -59 199 -131 894 -821 l326 -325 248
248 248 248 -515 514 c-283 282 -552 545 -599 584 -201 167 -374 247 -611 284
-62 10 -403 21 -411 14z"/>
</g>
</svg>
